<?xml version="1.0" encoding="UTF-8"?>
<!DOCTYPE svg PUBLIC "-//W3C//DTD SVG 1.1//EN" "http://www.w3.org/Graphics/SVG/1.1/DTD/svg11.dtd">
<svg version="1.2" width="262.5mm" height="371.25mm" viewBox="0 0 26250 37125" preserveAspectRatio="xMidYMid" fill-rule="evenodd" stroke-width="28.222" stroke-linejoin="round" xmlns="http://www.w3.org/2000/svg" xmlns:ooo="http://xml.openoffice.org/svg/export" xmlns:xlink="http://www.w3.org/1999/xlink" xmlns:presentation="http://sun.com/xmlns/staroffice/presentation" xmlns:smil="http://www.w3.org/2001/SMIL20/" xmlns:anim="urn:oasis:names:tc:opendocument:xmlns:animation:1.0" xml:space="preserve">
 <defs class="ClipPathGroup">
  <clipPath id="presentation_clip_path" clipPathUnits="userSpaceOnUse">
   <rect x="0" y="0" width="26250" height="37125"/>
  </clipPath>
  <clipPath id="presentation_clip_path_shrink" clipPathUnits="userSpaceOnUse">
   <rect x="26" y="37" width="26198" height="37051"/>
  </clipPath>
 </defs>
 <defs class="TextShapeIndex">
  <g ooo:slide="id1" ooo:id-list="id3 id4 id5 id6 id7 id8 id9 id10 id11 id12"/>
 </defs>
 <defs class="EmbeddedBulletChars">
  <g id="bullet-char-template(57356)" transform="scale(0.00048828125,-0.00048828125)">
   <path d="M 580,1141 L 1163,571 580,0 -4,571 580,1141 Z"/>
  </g>
  <g id="bullet-char-template(57354)" transform="scale(0.00048828125,-0.00048828125)">
   <path d="M 8,1128 L 1137,1128 1137,0 8,0 8,1128 Z"/>
  </g>
  <g id="bullet-char-template(10146)" transform="scale(0.00048828125,-0.00048828125)">
   <path d="M 174,0 L 602,739 174,1481 1456,739 174,0 Z M 1358,739 L 309,1346 659,739 1358,739 Z"/>
  </g>
  <g id="bullet-char-template(10132)" transform="scale(0.00048828125,-0.00048828125)">
   <path d="M 2015,739 L 1276,0 717,0 1260,543 174,543 174,936 1260,936 717,1481 1274,1481 2015,739 Z"/>
  </g>
  <g id="bullet-char-template(10007)" transform="scale(0.00048828125,-0.00048828125)">
   <path d="M 0,-2 C -7,14 -16,27 -25,37 L 356,567 C 262,823 215,952 215,954 215,979 228,992 255,992 264,992 276,990 289,987 310,991 331,999 354,1012 L 381,999 492,748 772,1049 836,1024 860,1049 C 881,1039 901,1025 922,1006 886,937 835,863 770,784 769,783 710,716 594,584 L 774,223 C 774,196 753,168 711,139 L 727,119 C 717,90 699,76 672,76 641,76 570,178 457,381 L 164,-76 C 142,-110 111,-127 72,-127 30,-127 9,-110 8,-76 1,-67 -2,-52 -2,-32 -2,-23 -1,-13 0,-2 Z"/>
  </g>
  <g id="bullet-char-template(10004)" transform="scale(0.00048828125,-0.00048828125)">
   <path d="M 285,-33 C 182,-33 111,30 74,156 52,228 41,333 41,471 41,549 55,616 82,672 116,743 169,778 240,778 293,778 328,747 346,684 L 369,508 C 377,444 397,411 428,410 L 1163,1116 C 1174,1127 1196,1133 1229,1133 1271,1133 1292,1118 1292,1087 L 1292,965 C 1292,929 1282,901 1262,881 L 442,47 C 390,-6 338,-33 285,-33 Z"/>
  </g>
  <g id="bullet-char-template(9679)" transform="scale(0.00048828125,-0.00048828125)">
   <path d="M 813,0 C 632,0 489,54 383,161 276,268 223,411 223,592 223,773 276,916 383,1023 489,1130 632,1184 813,1184 992,1184 1136,1130 1245,1023 1353,916 1407,772 1407,592 1407,412 1353,268 1245,161 1136,54 992,0 813,0 Z"/>
  </g>
  <g id="bullet-char-template(8226)" transform="scale(0.00048828125,-0.00048828125)">
   <path d="M 346,457 C 273,457 209,483 155,535 101,586 74,649 74,723 74,796 101,859 155,911 209,963 273,989 346,989 419,989 480,963 531,910 582,859 608,796 608,723 608,648 583,586 532,535 482,483 420,457 346,457 Z"/>
  </g>
  <g id="bullet-char-template(8211)" transform="scale(0.00048828125,-0.00048828125)">
   <path d="M -4,459 L 1135,459 1135,606 -4,606 -4,459 Z"/>
  </g>
  <g id="bullet-char-template(61548)" transform="scale(0.00048828125,-0.00048828125)">
   <path d="M 173,740 C 173,903 231,1043 346,1159 462,1274 601,1332 765,1332 928,1332 1067,1274 1183,1159 1299,1043 1357,903 1357,740 1357,577 1299,437 1183,322 1067,206 928,148 765,148 601,148 462,206 346,322 231,437 173,577 173,740 Z"/>
  </g>
 </defs>
 <defs class="TextEmbeddedBitmaps"/>
 <g>
  <g id="id2" class="Master_Slide">
   <g id="bg-id2" class="Background"/>
   <g id="bo-id2" class="BackgroundObjects"/>
  </g>
 </g>
 <g class="SlideGroup">
  <g>
   <g id="container-id1">
    <g id="id1" class="Slide" clip-path="url(#presentation_clip_path)">
     <g class="Page">
      <g class="com.sun.star.drawing.ClosedBezierShape">
       <g id="id3">
        <rect class="BoundingBox" stroke="none" fill="none" x="2445" y="6460" width="21360" height="19382"/>
        <path fill="rgb(255,51,51)" stroke="none" d="M 15959,6460 C 20101,8928 23804,14803 23804,19269 23804,23017 21750,25841 16000,25841 L 13125,25841 10250,25841 C 4500,25841 2446,23017 2446,19269 2446,14803 6143,9001 10138,6515 L 15959,6460 Z"/>
       </g>
      </g>
      <g class="com.sun.star.drawing.ClosedBezierShape">
       <g id="id4">
        <rect class="BoundingBox" stroke="none" fill="none" x="2446" y="6409" width="10346" height="19433"/>
        <path fill="rgb(197,0,11)" stroke="none" d="M 4987,19270 C 4987,14803 8684,8895 12679,6409 L 10217,6409 C 6222,8895 2446,14803 2446,19270 2446,23018 4500,25841 10250,25841 L 12791,25841 C 7041,25841 4987,23018 4987,19270 Z"/>
       </g>
      </g>
      <g class="com.sun.star.drawing.ClosedBezierShape">
       <g id="id5">
        <rect class="BoundingBox" stroke="none" fill="none" x="9369" y="411" width="7245" height="4487"/>
        <path fill="rgb(255,51,51)" stroke="none" d="M 10661,4896 L 9400,1009 C 9277,582 9528,325 9957,437 9957,437 11652,975 12222,1138 12649,1259 13356,1259 13782,1137 14347,975 16025,439 16025,439 16453,326 16704,582 16581,1009 L 15590,4896 10661,4896 Z"/>
       </g>
      </g>
      <g class="com.sun.star.drawing.ClosedBezierShape">
       <g id="id6">
        <rect class="BoundingBox" stroke="none" fill="none" x="9369" y="411" width="2590" height="4487"/>
        <path fill="rgb(204,0,0)" stroke="none" d="M 10684,667 C 10276,539 9957,437 9957,437 9528,325 9277,582 9400,1009 L 10661,4896 11957,4896 10697,1009 C 10659,876 10656,760 10684,667 Z"/>
       </g>
      </g>
      <g class="com.sun.star.drawing.ClosedBezierShape">
       <g id="id7">
        <rect class="BoundingBox" stroke="none" fill="none" x="9839" y="4894" width="6573" height="1646"/>
        <path fill="rgb(255,51,51)" stroke="none" d="M 16411,5716 C 16411,6168 16042,6538 15590,6538 L 10661,6538 C 10209,6538 9839,6168 9839,5716 9839,5264 10209,4894 10661,4894 L 15590,4894 C 16042,4894 16411,5264 16411,5716 Z"/>
       </g>
      </g>
      <g class="com.sun.star.drawing.ClosedBezierShape">
       <g id="id8">
        <rect class="BoundingBox" stroke="none" fill="none" x="9839" y="4894" width="2637" height="1646"/>
        <path fill="rgb(197,0,11)" stroke="none" d="M 11653,5716 C 11653,5264 12023,4894 12475,4894 L 10661,4894 C 10209,4894 9839,5264 9839,5716 9839,6168 10209,6538 10661,6538 L 12475,6538 C 12023,6538 11653,6168 11653,5716 Z"/>
       </g>
      </g>
      <g class="com.sun.star.drawing.ClosedBezierShape">
       <g id="id9">
        <rect class="BoundingBox" stroke="none" fill="none" x="7859" y="11125" width="10564" height="10564"/>
        <path fill="rgb(255,255,255)" stroke="none" d="M 18422,16406 C 18422,17379 18200,18205 17714,19047 17228,19889 16623,20494 15781,20980 14939,21466 14113,21688 13140,21688 12168,21688 11342,21466 10500,20980 9658,20494 9053,19889 8567,19047 8080,18205 7859,17379 7859,16406 7859,15434 8080,14608 8567,13766 9053,12924 9658,12319 10500,11833 11342,11346 12168,11125 13140,11125 14113,11125 14939,11346 15781,11833 16623,12319 17228,12924 17714,13766 18200,14608 18422,15434 18422,16406 Z"/>
       </g>
      </g>
      <g class="com.sun.star.drawing.ClosedBezierShape">
       <g id="id10">
        <rect class="BoundingBox" stroke="none" fill="none" x="9429" y="10233" width="7395" height="12323"/>
        <path fill="rgb(197,0,11)" stroke="none" d="M 13126,15573 C 12013,15573 11072,14914 11072,14135 11072,13356 12012,12698 13126,12698 14052,12698 14890,13160 15120,13797 15160,13907 15180,14021 15180,14135 15180,14589 15548,14957 16001,14957 16455,14957 16823,14589 16823,14135 16823,13830 16770,13529 16666,13240 16276,12157 15229,11378 13947,11139 L 13947,11054 C 13947,10601 13580,10233 13126,10233 12672,10233 12304,10601 12304,11054 L 12304,11134 C 10661,11446 9429,12672 9429,14135 9429,15834 11087,17216 13126,17216 14239,17216 15180,17874 15180,18653 15180,19432 14239,20091 13126,20091 12013,20091 11072,19432 11072,18653 11072,18200 10704,17832 10251,17832 9797,17832 9429,18200 9429,18653 9429,20116 10661,21342 12304,21654 L 12304,21734 C 12304,22187 12672,22555 13126,22555 13580,22555 13947,22187 13947,21734 L 13947,21654 C 15591,21342 16823,20116 16823,18653 16823,16954 15164,15573 13126,15573 Z"/>
       </g>
      </g>
      <g class="com.sun.star.drawing.ClosedBezierShape">
       <g id="id11">
        <rect class="BoundingBox" stroke="none" fill="none" x="2036" y="0" width="22179" height="26253"/>
        <path fill="rgb(45,43,41)" stroke="none" d="M 21806,11934 C 20393,9632 18524,7622 16636,6364 16753,6175 16821,5953 16821,5715 16821,5214 16520,4782 16090,4590 L 16977,1114 C 17074,768 17011,447 16803,233 16593,19 16271,-52 15920,40 15913,42 15906,44 15899,46 15883,52 14221,582 13669,741 13314,842 12691,843 12335,742 11777,583 10098,50 10081,45 10074,43 10067,41 10061,39 9710,-53 9388,18 9178,233 8968,448 8906,772 9006,1120 9007,1125 9009,1129 9010,1133 L 10135,4601 C 9718,4799 9429,5224 9429,5715 9429,5953 9497,6175 9615,6364 7726,7622 5857,9632 4444,11934 2891,14465 2036,17070 2036,19269 2036,21394 2666,23073 3909,24257 5297,25580 7430,26251 10250,26251 L 16000,26251 C 18820,26251 20954,25580 22342,24257 23584,23073 24214,21394 24214,19269 24214,17070 23359,14465 21806,11934 Z M 13949,6126 L 13949,6126 12302,6126 12301,6126 10661,6126 C 10434,6126 10250,5942 10250,5715 10250,5488 10434,5304 10660,5304 L 10661,5304 10662,5304 12713,5304 C 12714,5304 12714,5304 12715,5304 12715,5304 12716,5304 12717,5304 L 13534,5304 C 13534,5304 13535,5304 13536,5304 L 13537,5304 15590,5304 C 15816,5304 16001,5488 16001,5715 16001,5942 15816,6126 15590,6126 L 13949,6126 Z M 9780,820 C 9796,821 9818,824 9845,830 10008,882 11559,1374 12110,1531 12611,1673 13395,1673 13895,1529 14440,1373 15975,883 16137,831 16163,825 16184,822 16201,821 16199,839 16195,863 16186,893 16185,897 16184,901 16183,906 L 15271,4483 14142,4483 14738,2992 C 14822,2782 14720,2543 14510,2459 14299,2375 14061,2477 13977,2688 L 13258,4483 12992,4483 12274,2688 C 12190,2477 11951,2375 11741,2459 11530,2543 11428,2782 11512,2992 L 12109,4483 10959,4483 9793,888 C 9785,860 9782,837 9780,820 Z M 16000,25430 L 10250,25430 C 5344,25430 2856,23357 2856,19269 2856,15090 6262,9438 10305,6894 10418,6928 10537,6946 10661,6946 L 11537,6946 11141,7541 C 11015,7729 11066,7984 11255,8110 11325,8156 11404,8179 11482,8179 11614,8179 11744,8115 11824,7996 L 12523,6947 13727,6947 14427,7996 C 14506,8115 14636,8179 14768,8179 14847,8179 14926,8156 14996,8110 15184,7984 15235,7729 15109,7541 L 14713,6946 15590,6946 C 15713,6946 15832,6928 15945,6894 19988,9438 23394,15090 23394,19269 23394,23357 20906,25430 16000,25430 Z"/>
       </g>
      </g>
      <g class="com.sun.star.drawing.ClosedBezierShape">
       <g id="id12">
        <rect class="BoundingBox" stroke="none" fill="none" x="9018" y="9823" width="8215" height="13144"/>
        <path fill="rgb(45,43,41)" stroke="none" d="M 13125,13108 C 13872,13108 14563,13464 14733,13936 14757,14002 14769,14068 14769,14135 14769,14814 15321,15367 16001,15367 16680,15367 17232,14814 17232,14135 17232,13783 17171,13435 17051,13101 16646,11979 15642,11137 14331,10804 14215,10245 13718,9823 13125,9823 12533,9823 12037,10243 11920,10800 11156,11000 10467,11390 9955,11917 9351,12539 9018,13327 9018,14135 9018,16060 10860,17626 13125,17626 14066,17626 14769,18168 14769,18653 14769,19138 14066,19681 13125,19681 12184,19681 11481,19138 11481,18653 11481,17974 10929,17422 10250,17422 9571,17422 9018,17974 9018,18653 9018,19462 9351,20249 9955,20871 10467,21398 11156,21788 11920,21988 12037,22546 12533,22966 13125,22966 13717,22966 14213,22546 14330,21988 15094,21788 15783,21398 16295,20871 16899,20249 17232,19462 17232,18653 17232,16729 15390,15163 13125,15163 12184,15163 11481,14620 11481,14135 11482,13650 12185,13108 13125,13108 Z M 13125,15983 C 14938,15983 16412,17181 16412,18653 16412,19879 15343,20972 13870,21252 13677,21289 13537,21458 13537,21655 L 13537,21734 C 13537,21961 13352,22145 13125,22145 12899,22145 12714,21961 12714,21734 L 12714,21655 C 12714,21458 12574,21289 12380,21252 10908,20972 9839,19879 9839,18653 9839,18427 10023,18242 10250,18242 10477,18242 10661,18427 10661,18653 10661,19672 11767,20501 13125,20501 14484,20501 15589,19672 15589,18653 15589,17635 14484,16806 13125,16806 11313,16806 9839,15608 9839,14135 9839,12910 10908,11817 12380,11537 12574,11500 12714,11331 12714,11134 L 12714,11055 C 12714,10828 12899,10644 13125,10644 13352,10644 13537,10828 13537,11055 L 13537,11139 C 13537,11337 13677,11506 13872,11542 15026,11758 15948,12461 16279,13379 16367,13624 16412,13878 16412,14135 16412,14362 16227,14547 16001,14547 15774,14547 15589,14362 15589,14135 15589,13973 15561,13812 15505,13658 15214,12851 14236,12287 13125,12287 11767,12287 10661,13116 10661,14135 10661,15154 11767,15983 13125,15983 Z"/>
       </g>
      </g>
     </g>
    </g>
   </g>
  </g>
 </g>
</svg>